# xmcd
#
# Track frame offsets:
#	150
#	13391
#	29542
#	41658
#	52455
#	60265
#	76344
#	94163
#	106811
#	124252
#	135183
#	143610
#	170167
#	206816
#	220024
#	255068
#	272318
#	287660
#	299063
#	311039
#	322036
#
# Disc length: 4526 seconds
# Revision: 0
# Processed by: cddbd v1.5.2PL0 Copyright (c) Steve Scherf et al.
# Submitted via: dBpowerAMP V12.0
#
DISCID=3c11ac15
DTITLE=Spirit - Blues Fom The Soul Disc 1
DYEAR=1900
DGENRE=Alternative
TTITLE0=Gonna Need Somebody On Your Bond
TTITLE1=Wagon Of Wood
TTITLE2=Tell Me
TTITLE3=Key To The Highway
TTITLE4=When You're Smilin'
TTITLE5=Pawnshop Blues
TTITLE6=Ever Since You Left Me
TTITLE7=Kansas City
TTITLE8=Fixin' To Die
TTITLE9=Pick A Bale Of Cotton
TTITLE10=Run Sinner Run
TTITLE11=Cosmic Smile
TTITLE12=Charlie James/Miss This Train
TTITLE13=Jimi's Back
TTITLE14=Red House
TTITLE15=Kokomo
TTITLE16=Devine Love
TTITLE17=When The Saints Go Marchin' In
TTITLE18=Like A Dog
TTITLE19=Lord I'll Be With You Always
TTITLE20=I Had A Dream
EXTD=
EXTT0=
EXTT1=
EXTT2=
EXTT3=
EXTT4=
EXTT5=
EXTT6=
EXTT7=
EXTT8=
EXTT9=
EXTT10=
EXTT11=
EXTT12=
EXTT13=
EXTT14=
EXTT15=
EXTT16=
EXTT17=
EXTT18=
EXTT19=
EXTT20=
PLAYORDER=
